<mxfile host="65bd71144e">
    <diagram id="tUkvrl5b6MOCDXm-WBxT" name="Page-1">
        <mxGraphModel dx="378" dy="673" grid="1" gridSize="10" guides="1" tooltips="1" connect="1" arrows="1" fold="1" page="1" pageScale="1" pageWidth="850" pageHeight="1100" math="0" shadow="0">
            <root>
                <mxCell id="0"/>
                <mxCell id="1" parent="0"/>
                <mxCell id="2" value="&lt;table border=&quot;1&quot; width=&quot;100%&quot; height=&quot;100%&quot; cellpadding=&quot;4&quot; style=&quot;width:100%;height:100%;border-collapse:collapse;&quot;&gt;&lt;tbody&gt;&lt;tr&gt;&lt;th align=&quot;center&quot;&gt;&lt;b&gt;Vector&lt;/b&gt;&lt;/th&gt;&lt;/tr&gt;&lt;tr&gt;&lt;td align=&quot;center&quot;&gt;- XYZ[3]: double&lt;br&gt;&lt;/td&gt;&lt;/tr&gt;&lt;tr&gt;&lt;td align=&quot;center&quot;&gt;+getLength(): double(const)&lt;br&gt;&lt;u&gt;+dot(const Vector&amp;amp;,const Vector&amp;amp;&lt;span style=&quot;background-color: initial; text-align: left;&quot;&gt;)&lt;/span&gt;&lt;span style=&quot;background-color: initial; text-align: left;&quot;&gt;: double&lt;/span&gt;&lt;/u&gt;&lt;br&gt;+cross(const Vector&amp;amp;&lt;u style=&quot;background-color: initial; text-align: left;&quot;&gt;)&lt;/u&gt;&lt;span style=&quot;background-color: initial; text-align: left;&quot;&gt;: Vector&amp;amp;&lt;br&gt;&lt;/span&gt;&lt;br&gt;+print():void(const)&lt;br&gt;+operator-(const Vector&amp;amp;): Vector&lt;br&gt;+operartor&amp;gt;&amp;gt;(istream&amp;amp;, Vector &amp;amp;): istream&amp;amp;&lt;br&gt;&lt;/td&gt;&lt;/tr&gt;&lt;/tbody&gt;&lt;/table&gt;" style="text;html=1;whiteSpace=wrap;strokeColor=#BD7000;fillColor=#f0a30a;overflow=fill;fontColor=#000000;" parent="1" vertex="1">
                    <mxGeometry x="110" y="130" width="280" height="260" as="geometry"/>
                </mxCell>
                <mxCell id="4" value="&lt;table border=&quot;1&quot; width=&quot;100%&quot; height=&quot;100%&quot; cellpadding=&quot;4&quot; style=&quot;width:100%;height:100%;border-collapse:collapse;&quot;&gt;&lt;tbody&gt;&lt;tr&gt;&lt;th align=&quot;center&quot;&gt;&lt;b&gt;Plane&lt;/b&gt;&lt;/th&gt;&lt;/tr&gt;&lt;tr&gt;&lt;td align=&quot;center&quot;&gt;- ref_point :Vector&lt;br&gt;- normal: Vector&lt;/td&gt;&lt;/tr&gt;&lt;tr&gt;&lt;td align=&quot;center&quot;&gt;Plane(Vector,Vector)&lt;/td&gt;&lt;/tr&gt;&lt;/tbody&gt;&lt;/table&gt;" style="text;html=1;whiteSpace=wrap;strokeColor=#BD7000;fillColor=#f0a30a;overflow=fill;fontColor=#000000;" vertex="1" parent="1">
                    <mxGeometry x="450" y="140" width="280" height="210" as="geometry"/>
                </mxCell>
                <mxCell id="5" value="&lt;table border=&quot;1&quot; width=&quot;100%&quot; height=&quot;100%&quot; cellpadding=&quot;4&quot; style=&quot;width:100%;height:100%;border-collapse:collapse;&quot;&gt;&lt;tbody&gt;&lt;tr&gt;&lt;th align=&quot;center&quot;&gt;&lt;b&gt;Section&lt;/b&gt;&lt;/th&gt;&lt;/tr&gt;&lt;tr&gt;&lt;td align=&quot;center&quot;&gt;-section[2]:Vector&lt;/td&gt;&lt;/tr&gt;&lt;tr&gt;&lt;td align=&quot;center&quot;&gt;PlaneIntersection(const Plane&amp;amp;): Point/Vector&lt;/td&gt;&lt;/tr&gt;&lt;/tbody&gt;&lt;/table&gt;" style="text;html=1;whiteSpace=wrap;strokeColor=#BD7000;fillColor=#f0a30a;overflow=fill;fontColor=#000000;" vertex="1" parent="1">
                    <mxGeometry x="120" y="480" width="280" height="210" as="geometry"/>
                </mxCell>
                <mxCell id="6" value="&lt;table border=&quot;1&quot; width=&quot;100%&quot; height=&quot;100%&quot; cellpadding=&quot;4&quot; style=&quot;width:100%;height:100%;border-collapse:collapse;&quot;&gt;&lt;tbody&gt;&lt;tr&gt;&lt;th align=&quot;center&quot;&gt;&lt;b&gt;Facet&lt;/b&gt;&lt;/th&gt;&lt;/tr&gt;&lt;tr&gt;&lt;td align=&quot;center&quot;&gt;- Sections[3]:Vector&lt;/td&gt;&lt;/tr&gt;&lt;tr&gt;&lt;td align=&quot;center&quot;&gt;PlaneIntersection(const Plane &amp;amp;): Section&lt;/td&gt;&lt;/tr&gt;&lt;/tbody&gt;&lt;/table&gt;" style="text;html=1;whiteSpace=wrap;strokeColor=#BD7000;fillColor=#f0a30a;overflow=fill;fontColor=#000000;" vertex="1" parent="1">
                    <mxGeometry x="470" y="490" width="280" height="210" as="geometry"/>
                </mxCell>
                <mxCell id="7" value="&lt;table border=&quot;1&quot; width=&quot;100%&quot; height=&quot;100%&quot; cellpadding=&quot;4&quot; style=&quot;width:100%;height:100%;border-collapse:collapse;&quot;&gt;&lt;tbody&gt;&lt;tr&gt;&lt;th align=&quot;center&quot;&gt;Gcode&lt;/th&gt;&lt;/tr&gt;&lt;tr&gt;&lt;td align=&quot;center&quot;&gt;- Section * sections&lt;/td&gt;&lt;/tr&gt;&lt;tr&gt;&lt;td align=&quot;center&quot;&gt;generateLayer(Section*): void{const}&lt;/td&gt;&lt;/tr&gt;&lt;/tbody&gt;&lt;/table&gt;" style="text;html=1;whiteSpace=wrap;strokeColor=#BD7000;fillColor=#f0a30a;overflow=fill;fontColor=#000000;" vertex="1" parent="1">
                    <mxGeometry x="100" y="780" width="280" height="210" as="geometry"/>
                </mxCell>
            </root>
        </mxGraphModel>
    </diagram>
</mxfile>